<?xml version="1.0" standalone="no"?>
<!DOCTYPE svg PUBLIC "-//W3C//DTD SVG 20010904//EN"
 "http://www.w3.org/TR/2001/REC-SVG-20010904/DTD/svg10.dtd">
<svg version="1.0" xmlns="http://www.w3.org/2000/svg"
 width="512.000000pt" height="512.000000pt" viewBox="0 0 512.000000 512.000000"
 preserveAspectRatio="xMidYMid meet">
<metadata>
Created by potrace 1.11, written by Peter Selinger 2001-2013
</metadata>
<g transform="translate(0.000000,512.000000) scale(0.100000,-0.100000)"
fill="#000000" stroke="none">
<path d="M1977 4949 c-197 -55 -336 -183 -405 -374 -36 -98 -37 -268 -3 -365
120 -343 498 -497 828 -338 96 46 207 159 257 258 93 189 79 399 -38 585 -34
53 -141 149 -202 182 -132 70 -299 90 -437 52z"/>
<path d="M3582 4821 c-122 -45 -166 -97 -374 -436 -130 -213 -217 -344 -257
-390 -159 -179 -331 -296 -540 -364 -233 -76 -531 -75 -746 3 -81 30 -254 114
-305 148 -188 127 -564 343 -603 346 -133 11 -214 -8 -305 -68 -109 -73 -160
-164 -167 -305 -7 -115 27 -206 103 -282 48 -48 130 -101 451 -295 91 -56 173
-107 182 -114 9 -8 19 -11 22 -7 4 3 7 2 7 -4 0 -5 21 -25 48 -43 71 -51 213
-197 261 -270 113 -171 181 -356 198 -542 21 -224 -12 -412 -105 -607 -17 -36
-28 -69 -25 -74 3 -6 2 -7 -4 -4 -5 3 -18 -11 -28 -31 -11 -20 -49 -82 -84
-137 -35 -55 -78 -122 -96 -150 -59 -93 -152 -250 -178 -302 -25 -48 -46 -141
-41 -176 1 -9 5 -34 8 -55 15 -107 113 -235 221 -288 55 -26 69 -29 170 -29
102 0 114 2 170 30 33 16 80 50 105 75 26 25 115 156 204 300 88 140 173 275
189 299 17 25 30 50 30 57 0 7 3 12 7 11 4 -1 25 21 47 48 104 130 212 221
357 299 79 42 200 92 245 101 13 2 32 7 43 11 11 3 30 7 41 9 12 2 45 7 72 11
65 11 264 11 338 1 90 -12 217 -52 322 -101 52 -25 95 -42 95 -38 0 4 4 2 8
-4 8 -14 477 -301 577 -355 81 -43 117 -52 198 -51 181 2 340 135 378 314 26
121 -16 270 -98 350 -30 28 -413 278 -428 278 -5 0 -138 82 -198 122 -31 21
-62 36 -69 32 -6 -4 -8 -3 -4 4 3 6 -19 30 -53 56 -213 164 -369 443 -412 736
-16 114 -6 332 20 430 44 163 96 268 256 520 253 399 277 448 277 565 -1 151
-96 294 -237 356 -73 32 -221 37 -293 10z m-783 -2211 c12 -47 33 -114 46
-150 l23 -66 -26 2 c-57 2 -266 -42 -401 -86 -35 -11 -67 -20 -71 -20 -4 0
-12 39 -19 87 -14 102 -64 299 -90 358 l-18 41 131 22 c115 20 272 60 346 89
l25 10 16 -101 c9 -55 26 -139 38 -186z"/>
<path d="M4317 3604 c-1 -1 -20 -5 -42 -8 -289 -46 -499 -288 -498 -576 0
-202 97 -376 271 -488 92 -59 178 -85 294 -89 351 -11 626 268 604 613 -9 150
-63 269 -176 385 -66 67 -189 131 -291 149 -56 11 -157 19 -162 14z"/>
<path d="M665 2753 c-208 -25 -402 -175 -476 -372 -30 -81 -31 -87 -35 -188
-6 -167 51 -309 171 -428 304 -304 823 -186 966 219 76 219 14 466 -157 619
-57 51 -153 106 -223 128 -61 18 -181 29 -246 22z"/>
<path d="M2987 1335 c-1 -2 -31 -5 -67 -8 -220 -19 -434 -192 -495 -401 -24
-83 -26 -96 -26 -171 0 -252 159 -471 401 -556 120 -42 302 -32 425 22 293
129 426 476 296 770 -62 140 -199 261 -356 314 -42 14 -170 35 -178 30z"/>
</g>
</svg>
